<svg xmlns="http://www.w3.org/2000/svg" width="60.642" height="56.206" viewBox="0 0 60.642 56.206"><g transform="translate(0.6 0.606)"><path d="M13.183,56.7a.8.8,0,0,1-.793-.793V45.471a.793.793,0,1,1,1.585,0V55.84A.78.78,0,0,1,13.183,56.7Zm45.909,2.037v-5.9a.8.8,0,0,0-.793-.793.852.852,0,0,0-.793.793v5.9a2.96,2.96,0,0,1-2.972,2.972H9.623a2.96,2.96,0,0,1-2.972-2.972V24.92a2.96,2.96,0,0,1,2.972-2.972H54.535a2.96,2.96,0,0,1,2.972,2.972v5.506a.8.8,0,0,0,.793.793.852.852,0,0,0,.793-.793V24.92A4.637,4.637,0,0,0,54.469,20.3H9.623A4.637,4.637,0,0,0,5,24.92V58.8a4.637,4.637,0,0,0,4.623,4.623H54.535A4.681,4.681,0,0,0,59.092,58.736Zm5.35-16.049V40.9A6.765,6.765,0,0,0,57.7,34.167H44.958A6.765,6.765,0,0,0,38.221,40.9v1.783a6.765,6.765,0,0,0,6.737,6.737H57.7A6.765,6.765,0,0,0,64.442,42.686ZM57.7,35.818A5.131,5.131,0,0,1,62.79,40.9v1.783A5.131,5.131,0,0,1,57.7,47.772H44.958a5.131,5.131,0,0,1-5.086-5.086V40.9a5.131,5.131,0,0,1,5.086-5.086ZM53.148,17.457a.85.85,0,0,0,.4-1.123l-3.5-7.463a.7.7,0,0,0-.462-.4,1.126,1.126,0,0,0-.66,0L33.532,15.74a.842.842,0,1,0,.727,1.519l14.6-6.869,3.17,6.737a.9.9,0,0,0,.727.462C52.95,17.523,53.082,17.523,53.148,17.457Z" transform="translate(-5 -8.425)" fill="#ffa500" stroke="#ffa500" stroke-width="1.2"></path><path d="M15.345-7.59H12.234" transform="translate(37.955 40.737)" fill="#ffa500" stroke="#ffa500" stroke-linecap="round" stroke-width="2.6"></path></g></svg>