<svg xmlns="http://www.w3.org/2000/svg" width="50.321" height="61.06" viewBox="0 0 50.321 61.06"><path d="M37.6,56.172a6.71,6.71,0,0,1-8.3,4.281L4.57,52.1A6.708,6.708,0,0,1,.355,43.6l9.774-28.946A6.661,6.661,0,0,1,12.78,11.2l11.753-9.79A6.674,6.674,0,0,1,30.783.351l8.836,2.965a6.707,6.707,0,0,1,4.449,5.106l3.413,14.914a6.712,6.712,0,0,1-.12,3.89L45.8,31.837a31.812,31.812,0,0,0,3.265.907,1.187,1.187,0,0,1-.512,2.318,34.7,34.7,0,0,1-3.512-.973ZM18.079,41.482a1.129,1.129,0,0,0-.806-1.127L11.1,38.276a1.188,1.188,0,1,0-.754,2.252L16.484,42.6a1.182,1.182,0,0,0,.408.072,1.231,1.231,0,0,0,1.186-1.186Zm8.026,1.846a1.217,1.217,0,0,0-1.521,1.142,1.117,1.117,0,0,0,.762,1.108l.079.027,6.1,2.052a1.188,1.188,0,1,0,.754-2.252ZM21.3,41.8a1.186,1.186,0,1,0,1.186,1.186A1.187,1.187,0,0,0,21.3,41.8Zm8.328-27a1.187,1.187,0,0,1,2.373.046,14.391,14.391,0,0,0,.479,3.6l.107-.051a3.988,3.988,0,1,0-3.052.205,4.041,4.041,0,0,0,.588.15,16.585,16.585,0,0,1-.495-3.953Zm3.585,5.921a18.694,18.694,0,0,0,10.37,10.261l1.521-4.52a4.286,4.286,0,0,0,.228-1.243,4.355,4.355,0,0,0-.153-1.268l-3.431-15a4.357,4.357,0,0,0-1-2.116,4.311,4.311,0,0,0-1.888-1.268L30.03,2.6a4.356,4.356,0,0,0-2.1-.168,8.932,8.932,0,0,0-1.915.836L14.126,13.162a4.338,4.338,0,0,0-1.745,2.246L2.607,44.355a4.338,4.338,0,0,0,2.717,5.5l24.531,8.283a4.338,4.338,0,0,0,5.5-2.716l7.473-22.175c-7.2-3.08-10.473-8.049-11.96-12.054a6.371,6.371,0,1,1,2.779-.662q-.209.1-.425.192ZM14.683,27.672,35.862,34.8a1.187,1.187,0,0,0,.754-2.252L15.437,25.419a1.188,1.188,0,0,0-.754,2.252ZM12.512,34.1l21.179,7.128a1.187,1.187,0,1,0,.754-2.252L13.266,31.848a1.187,1.187,0,1,0-.754,2.252Zm0,0" transform="translate(0.168 0.153)" fill="#ffa500" stroke="#ffa500" stroke-width="0.3" fill-rule="evenodd"></path></svg>