<svg xmlns="http://www.w3.org/2000/svg" width="62.038" height="50.5" viewBox="0 0 62.038 50.5"><g transform="translate(0.25 0.25)"><path d="M60.1-14.313a6.131,6.131,0,0,0,1.442-4.026A6.131,6.131,0,0,0,60.1-22.366a6.4,6.4,0,0,0-3.726-2.224v-.12A5.819,5.819,0,0,0,52.524-30.6v-3.125a20.962,20.962,0,0,0-6.37-15.385,20.962,20.962,0,0,0-15.385-6.37,20.962,20.962,0,0,0-15.385,6.37,20.962,20.962,0,0,0-6.37,15.385v2.764a4.613,4.613,0,0,0-3.846,4.928v1.442a6.4,6.4,0,0,0-3.726,2.224A6.131,6.131,0,0,0,0-18.339a6.131,6.131,0,0,0,1.442,4.026,6.4,6.4,0,0,0,3.726,2.224v1.442a4.988,4.988,0,0,0,1.5,3.666,4.849,4.849,0,0,0,3.546,1.5h2.644a4.849,4.849,0,0,0,3.546-1.5,4.988,4.988,0,0,0,1.5-3.666V-26.031a4.988,4.988,0,0,0-1.5-3.666,4.849,4.849,0,0,0-3.546-1.5H11.538v-2.524a18.518,18.518,0,0,1,5.649-13.582,18.518,18.518,0,0,1,13.582-5.649,18.518,18.518,0,0,1,13.582,5.649A18.518,18.518,0,0,1,50-33.724V-31.2a6.045,6.045,0,0,0-4.507,1.923,6.34,6.34,0,0,0-1.863,4.567v12.74A6.34,6.34,0,0,0,45.493-7.4,6.045,6.045,0,0,0,50-5.479,6.045,6.045,0,0,0,54.507-7.4a6.34,6.34,0,0,0,1.863-4.567v-.12A6.4,6.4,0,0,0,60.1-14.313ZM5.168-14.733a3.466,3.466,0,0,1-2.644-3.606,3.466,3.466,0,0,1,2.644-3.606Zm10.216-11.3v15.385a2.352,2.352,0,0,1-.781,1.8,2.509,2.509,0,0,1-1.743.721H10.216a2.509,2.509,0,0,1-1.743-.721,2.352,2.352,0,0,1-.781-1.8V-26.031a2.352,2.352,0,0,1,.781-1.8,2.509,2.509,0,0,1,1.743-.721h2.644a2.509,2.509,0,0,1,1.743.721A2.352,2.352,0,0,1,15.385-26.031ZM53.846-11.969a3.8,3.8,0,0,1-1.082,2.7A3.641,3.641,0,0,1,50-8.123a3.641,3.641,0,0,1-2.764-1.142,3.8,3.8,0,0,1-1.082-2.7v-12.74a3.8,3.8,0,0,1,1.082-2.7A3.641,3.641,0,0,1,50-28.555a3.641,3.641,0,0,1,2.764,1.142,3.8,3.8,0,0,1,1.082,2.7Zm2.524-2.764v-7.212a3.466,3.466,0,0,1,2.644,3.606A3.466,3.466,0,0,1,56.37-14.733Z" transform="translate(0 55.479)" fill="#ffa500" stroke="#ffa500" stroke-width="0.5"></path><path d="M15.6,2.264A16.543,16.543,0,0,0,0,1.719" transform="matrix(0.998, -0.07, 0.07, 0.998, 22.735, 8.162)" fill="none" stroke="#ffa500" stroke-linecap="round" stroke-width="2.4"></path></g></svg>